<svg id="Layer_1" data-name="Layer 1" xmlns="http://www.w3.org/2000/svg" viewBox="0 0 56 56"><defs><style>.cls-1{fill:#ff8c1a;}</style></defs><rect x="26" y="48" width="4" height="8"/><rect x="26" width="4" height="8"/><rect y="26" width="8" height="4"/><rect x="48" y="26" width="8" height="4"/><rect x="45" y="43.03" width="4" height="8" transform="translate(-21.53 44.94) rotate(-45)"/><rect x="11.05" y="9.1" width="4" height="8" transform="translate(-7.48 11) rotate(-45)"/><rect x="9.07" y="45.04" width="8" height="4" transform="translate(-31.47 20.95) rotate(-45)"/><rect x="43" y="11.1" width="8" height="4" transform="translate(2.47 35) rotate(-45)"/><circle class="cls-1" cx="28" cy="28" r="15"/><path d="M30,47A17,17,0,1,1,47,30,17,17,0,0,1,30,47Zm0-30A13,13,0,1,0,43,30,13,13,0,0,0,30,17Z" transform="translate(-2.03 -2.07)"/></svg>